<svg width="24" height="24" viewBox="0 0 24 24" fill="none" xmlns="http://www.w3.org/2000/svg">
<path fill-rule="evenodd" clip-rule="evenodd" d="M8 4.00001C6.93913 4.00001 5.92172 4.42144 5.17157 5.17159C4.42143 5.92173 4 6.93915 4 8.00001C4 9.06088 4.42143 10.0783 5.17157 10.8284C5.92172 11.5786 6.93913 12 8 12C9.06087 12 10.0783 11.5786 10.8284 10.8284C11.5786 10.0783 12 9.06088 12 8.00001C12 6.93915 11.5786 5.92173 10.8284 5.17159C10.0783 4.42144 9.06087 4.00001 8 4.00001ZM6 13C4.93913 13 3.92172 13.4214 3.17157 14.1716C2.42143 14.9217 2 15.9391 2 17V18C2 18.5304 2.21071 19.0392 2.58579 19.4142C2.96086 19.7893 3.46957 20 4 20H12C12.5304 20 13.0391 19.7893 13.4142 19.4142C13.7893 19.0392 14 18.5304 14 18V17C14 15.9391 13.5786 14.9217 12.8284 14.1716C12.0783 13.4214 11.0609 13 10 13H6ZM13.25 10.905C13.728 10.045 14 9.05501 14 8.00001C14.0002 6.98345 13.7421 5.9835 13.25 5.09401C13.8178 4.55674 14.5306 4.19763 15.3003 4.06104C16.07 3.92446 16.8628 4.0164 17.5808 4.3255C18.2988 4.6346 18.9106 5.14731 19.3403 5.80026C19.7701 6.45322 19.9992 7.2178 19.9992 7.99951C19.9992 8.78123 19.7701 9.54581 19.3403 10.1988C18.9106 10.8517 18.2988 11.3644 17.5808 11.6735C16.8628 11.9826 16.07 12.0746 15.3003 11.938C14.5306 11.8014 13.8178 11.4423 13.25 10.905ZM15.466 20C15.806 19.412 16.001 18.729 16.001 18V17C16.0028 15.5238 15.4586 14.099 14.473 13H18C19.0609 13 20.0783 13.4214 20.8284 14.1716C21.5786 14.9217 22 15.9391 22 17V18C22 18.5304 21.7893 19.0392 21.4142 19.4142C21.0391 19.7893 20.5304 20 20 20H15.466Z" fill="black"/>
</svg>
