<svg width="24" height="24" viewBox="0 0 24 24" fill="none" xmlns="http://www.w3.org/2000/svg">
<path fill-rule="evenodd" clip-rule="evenodd" d="M4 12C4 16.4183 7.58172 20 12 20C16.4183 20 20 16.4183 20 12C20 7.58172 16.4183 4 12 4C7.58172 4 4 7.58172 4 12ZM12 2C6.47715 2 2 6.47715 2 12C2 17.5228 6.47715 22 12 22C17.5228 22 22 17.5228 22 12C22 6.47715 17.5228 2 12 2Z" fill="black"/>
<path d="M11.57 18.8C11.9375 18.8 12.2483 18.673 12.5024 18.419C12.7565 18.1647 12.8832 17.8544 12.8825 17.4876C12.8825 17.1201 12.7558 16.8093 12.5024 16.5552C12.249 16.3011 11.9382 16.1744 11.57 16.1751C11.2025 16.1751 10.892 16.3021 10.6386 16.5562C10.3852 16.8103 10.2582 17.1208 10.2575 17.4876C10.2575 17.8551 10.3845 18.1659 10.6386 18.4199C10.8927 18.674 11.2032 18.8007 11.57 18.8Z" fill="black"/>
<path d="M10.6665 13.7874C10.6133 14.3212 11.0598 14.7576 11.5962 14.7576C12.1326 14.7576 12.5433 14.317 12.6499 13.7913C12.68 13.6431 12.7183 13.5101 12.7649 13.3926C12.8965 13.06 13.2682 12.605 13.88 12.0275C14.335 11.5725 14.6937 11.1392 14.9562 10.7276C15.2187 10.316 15.35 9.82182 15.35 9.24503C15.35 8.26502 14.9913 7.51253 14.2737 6.98752C13.5562 6.46252 12.7075 6.20002 11.7275 6.20002C10.73 6.20002 9.92078 6.46252 9.29987 6.98752C8.91096 7.31636 8.59565 7.6864 8.35394 8.09763C8.11021 8.51232 8.35074 9.01572 8.79828 9.19202C9.29769 9.38876 9.87945 9.10737 10.2068 8.68195C10.2438 8.63386 10.2827 8.58531 10.3236 8.53628C10.6302 8.16878 11.0982 7.98503 11.7275 7.98503C12.2875 7.98503 12.7075 8.13833 12.9875 8.44493C13.2675 8.75153 13.4075 9.08823 13.4075 9.45503C13.4075 9.80502 13.3025 10.1333 13.0925 10.4399C12.8825 10.7465 12.62 11.0307 12.305 11.2925C11.535 11.975 11.0625 12.4913 10.8875 12.8413C10.7821 13.052 10.7085 13.3674 10.6665 13.7874Z" fill="black"/>
</svg>
